{"title":"Aatma 2013 Untouched Scam (RRG) - Hindi","uid":8287028,"size":454381568,"categoryP":"video","categoryS":"movies","magnet":"?xt=urn:btih:445fc38b84b1f8387788a28e00db8afe96cc7a37&amp;dn=Aatma+2013+Untouched+Scam+%28RRG%29+-+Hindi&amp;tr=udp%3A%2F%2Ftracker.openbittorrent.com%3A80&amp;tr=udp%3A%2F%2Fopen.demonii.com%3A1337&amp;tr=udp%3A%2F%2Ftracker.coppersurfer.tk%3A6969&amp;tr=udp%3A%2F%2Fexodus.desync.com%3A6969","seeders":1,"leechers":0,"uploader":"SJonam","files":7,"time":1363960755,"description":" &lt;a href=&quot;http://desibbrg.org/images/66952052392581364616.gif&quot; rel=&quot;nofollow&quot; target=&quot;_NEW&quot;&gt;http://desibbrg.org/images/66952052392581364616.gif&lt;/a&gt; &lt;a href=&quot;\nhttp://desibbrg.org/images/65429487190923960181.png&quot; rel=&quot;nofollow&quot; target=&quot;_NEW&quot;&gt;\nhttp://desibbrg.org/images/65429487190923960181.png&lt;/a&gt; &lt;a href=&quot;\nhttp://desibbrg.org/images/59939965115942308870.png&quot; rel=&quot;nofollow&quot; target=&quot;_NEW&quot;&gt;\nhttp://desibbrg.org/images/59939965115942308870.png&lt;/a&gt; &lt;a href=&quot;\nhttp://desibbrg.org/images/69528636670745541795.png&quot; rel=&quot;nofollow&quot; target=&quot;_NEW&quot;&gt;\nhttp://desibbrg.org/images/69528636670745541795.png&lt;/a&gt; &lt;a href=&quot;\nhttp://desibbrg.org/images/58353972294450644351.png&quot; rel=&quot;nofollow&quot; target=&quot;_NEW&quot;&gt;\nhttp://desibbrg.org/images/58353972294450644351.png&lt;/a&gt;\n\nMedia Info - \nVideo\nID : 224 (0xE0)\nFormat : MPEG Video\nFormat version : Version 2\nFormat profile : Main@Main\nFormat settings, BVOP : Yes\nFormat settings, Matrix : Default\nFormat settings, GOP : M=3, N=13\nDuration : 1h 25mn\nBit rate mode : Variable\nBit rate : 569 Kbps\nMaximum bit rate : 9 072 Kbps\nWidth : 352 pixels\nHeight : 288 pixels\nDisplay aspect ratio : 4:3\nFrame rate : 25.000 fps\nStandard : PAL\nColor space : YUV\nChroma subsampling : 4:2:0\nBit depth : 8 bits\nScan type : Progressive\nCompression mode : Lossy\nBits/(Pixel*Frame) : 0.224\nStream size : 346 MiB (80%)\n\nAudio\nID : 192 (0xC0)\nFormat : MPEG Audio\nFormat version : Version 1\nFormat profile : Layer 2\nDuration : 1h 25mn\nBit rate mode : Constant\nBit rate : 128 Kbps\nChannel(s) : 2 channels\nSampling rate : 48.0 KHz\nCompression mode : Lossy\nDelay relative to video : -1s 40ms\nStream size : 78.0 MiB (18%)\n\nCredits to Original Sharer DDD...;)\n\nSeeding 24x7... Extreme Seeding...\n\n\nEnjoy!\n","torrent":{"xt":"urn:btih:445fc38b84b1f8387788a28e00db8afe96cc7a37","amp;dn":"Aatma+2013+Untouched+Scam+%28RRG%29+-+Hindi","amp;tr":["udp%3A%2F%2Ftracker.openbittorrent.com%3A80","udp%3A%2F%2Fopen.demonii.com%3A1337","udp%3A%2F%2Ftracker.coppersurfer.tk%3A6969","udp%3A%2F%2Fexodus.desync.com%3A6969"],"infoHash":"445fc38b84b1f8387788a28e00db8afe96cc7a37","infoHashBuffer":{"type":"Buffer","data":[68,95,195,139,132,177,248,56,119,136,162,142,0,219,138,254,150,204,122,55]},"announce":[],"urlList":[]}}